name rise32.9588peak41.5061fall63.4684.mot
datacolumns 19
datarows 24
range 16.35993500000000 16.39828500000000
endheader
time	ground_force1_vx	ground_force1_vy	ground_force1_vz	ground_force1_px	ground_force1_py	ground_force1_pz	ground_force2_vx	ground_force2_vy	ground_force2_vz	ground_force2_px	ground_force2_py	ground_force2_pz	ground_torque1_x	ground_torque1_y	ground_torque1_z	ground_torque2_x	ground_torque2_y	ground_torque2_z	
16.35993500000000	8.77589800000000	706.31997300000000	33.00645000000000	0.16588500000000	0.00000000000000	0.10126800000000	0.00000000000000	0.00000000000000	0.00000000000000	0.00000000000000	0.00000000000000	0.00000000000000	0.00000000000000	8.26923000000000	0.00000000000000	0.00000000000000	0.00000000000000	0.00000000000000	
16.36160200000000	8.18634000000000	707.09267100000000	33.01813500000000	0.16483700000000	0.00000000000000	0.10130300000000	0.00000000000000	0.00000000000000	0.00000000000000	0.00000000000000	0.00000000000000	0.00000000000000	0.00000000000000	8.36505700000000	0.00000000000000	0.00000000000000	0.00000000000000	0.00000000000000	
16.36326900000000	7.58549800000000	707.91675799999996	33.03522500000000	0.16378500000000	0.00000000000000	0.10133900000000	0.00000000000000	0.00000000000000	0.00000000000000	0.00000000000000	0.00000000000000	0.00000000000000	0.00000000000000	8.46605600000000	0.00000000000000	0.00000000000000	0.00000000000000	0.00000000000000	
16.36494100000000	6.97365400000000	708.79146100000003	33.05759900000000	0.16273000000000	0.00000000000000	0.10137600000000	0.00000000000000	0.00000000000000	0.00000000000000	0.00000000000000	0.00000000000000	0.00000000000000	0.00000000000000	8.57203000000000	0.00000000000000	0.00000000000000	0.00000000000000	0.00000000000000	
16.36660400000000	6.35112000000000	709.71603400000004	33.08513500000000	0.16167200000000	0.00000000000000	0.10141400000000	0.00000000000000	0.00000000000000	0.00000000000000	0.00000000000000	0.00000000000000	0.00000000000000	0.00000000000000	8.68277300000000	0.00000000000000	0.00000000000000	0.00000000000000	0.00000000000000	
16.36828200000000	5.71823500000000	710.68976199999997	33.11770800000000	0.16061200000000	0.00000000000000	0.10145300000000	0.00000000000000	0.00000000000000	0.00000000000000	0.00000000000000	0.00000000000000	0.00000000000000	0.00000000000000	8.79807200000000	0.00000000000000	0.00000000000000	0.00000000000000	0.00000000000000	
16.36993500000000	5.07536500000000	711.71195999999998	33.15519600000000	0.15955100000000	0.00000000000000	0.10149200000000	0.00000000000000	0.00000000000000	0.00000000000000	0.00000000000000	0.00000000000000	0.00000000000000	0.00000000000000	8.91770800000000	0.00000000000000	0.00000000000000	0.00000000000000	0.00000000000000	
16.37160800000000	4.42289600000000	712.78197299999999	33.19747400000000	0.15849000000000	0.00000000000000	0.10153300000000	0.00000000000000	0.00000000000000	0.00000000000000	0.00000000000000	0.00000000000000	0.00000000000000	0.00000000000000	9.04145500000000	0.00000000000000	0.00000000000000	0.00000000000000	0.00000000000000	
16.37326700000000	3.76123700000000	713.89917800000001	33.24442000000000	0.15742800000000	0.00000000000000	0.10157300000000	0.00000000000000	0.00000000000000	0.00000000000000	0.00000000000000	0.00000000000000	0.00000000000000	0.00000000000000	9.16908000000000	0.00000000000000	0.00000000000000	0.00000000000000	0.00000000000000	
16.37494100000000	3.09081600000000	715.06298300000003	33.29591200000000	0.15636600000000	0.00000000000000	0.10161400000000	0.00000000000000	0.00000000000000	0.00000000000000	0.00000000000000	0.00000000000000	0.00000000000000	0.00000000000000	9.30034800000000	0.00000000000000	0.00000000000000	0.00000000000000	0.00000000000000	
16.37660300000000	2.41207700000000	716.27282500000001	33.35182900000000	0.15530600000000	0.00000000000000	0.10165500000000	0.00000000000000	0.00000000000000	0.00000000000000	0.00000000000000	0.00000000000000	0.00000000000000	0.00000000000000	9.43501800000000	0.00000000000000	0.00000000000000	0.00000000000000	0.00000000000000	
16.37828500000000	1.72547800000000	717.52816600000006	33.41205500000000	0.15424700000000	0.00000000000000	0.10169700000000	0.00000000000000	0.00000000000000	0.00000000000000	0.00000000000000	0.00000000000000	0.00000000000000	0.00000000000000	9.57284600000000	0.00000000000000	0.00000000000000	0.00000000000000	0.00000000000000	
16.37993800000000	1.03149200000000	718.82849499999998	33.47647400000000	0.15319000000000	0.00000000000000	0.10173800000000	0.00000000000000	0.00000000000000	0.00000000000000	0.00000000000000	0.00000000000000	0.00000000000000	0.00000000000000	9.71358600000000	0.00000000000000	0.00000000000000	0.00000000000000	0.00000000000000	
16.38160400000000	0.33059800000000	720.17332099999999	33.54497400000000	0.15213600000000	0.00000000000000	0.10177900000000	0.00000000000000	0.00000000000000	0.00000000000000	0.00000000000000	0.00000000000000	0.00000000000000	0.00000000000000	9.85698900000000	0.00000000000000	0.00000000000000	0.00000000000000	0.00000000000000	
16.38326900000000	-0.37671200000000	721.56217000000004	33.61744500000000	0.15108500000000	0.00000000000000	0.10182000000000	0.00000000000000	0.00000000000000	0.00000000000000	0.00000000000000	0.00000000000000	0.00000000000000	0.00000000000000	10.00280400000000	0.00000000000000	0.00000000000000	0.00000000000000	0.00000000000000	
16.38494200000000	-1.08994200000000	722.99458500000003	33.69378200000000	0.15003700000000	0.00000000000000	0.10186100000000	0.00000000000000	0.00000000000000	0.00000000000000	0.00000000000000	0.00000000000000	0.00000000000000	0.00000000000000	10.15077900000000	0.00000000000000	0.00000000000000	0.00000000000000	0.00000000000000	
16.38660900000000	-1.80859000000000	724.47011599999996	33.77388500000000	0.14899300000000	0.00000000000000	0.10190100000000	0.00000000000000	0.00000000000000	0.00000000000000	0.00000000000000	0.00000000000000	0.00000000000000	0.00000000000000	10.30066400000000	0.00000000000000	0.00000000000000	0.00000000000000	0.00000000000000	
16.38827400000000	-2.53215300000000	725.98831499999994	33.85765500000000	0.14795300000000	0.00000000000000	0.10194100000000	0.00000000000000	0.00000000000000	0.00000000000000	0.00000000000000	0.00000000000000	0.00000000000000	0.00000000000000	10.45220500000000	0.00000000000000	0.00000000000000	0.00000000000000	0.00000000000000	
16.38993900000000	-3.26012400000000	727.54873799999996	33.94500000000000	0.14691800000000	0.00000000000000	0.10198000000000	0.00000000000000	0.00000000000000	0.00000000000000	0.00000000000000	0.00000000000000	0.00000000000000	0.00000000000000	10.60515100000000	0.00000000000000	0.00000000000000	0.00000000000000	0.00000000000000	
16.39160900000000	-3.99199800000000	729.15092900000002	34.03583100000000	0.14588800000000	0.00000000000000	0.10201900000000	0.00000000000000	0.00000000000000	0.00000000000000	0.00000000000000	0.00000000000000	0.00000000000000	0.00000000000000	10.75925300000000	0.00000000000000	0.00000000000000	0.00000000000000	0.00000000000000	
16.39327800000000	-4.72727000000000	730.79442400000005	34.13006500000000	0.14486200000000	0.00000000000000	0.10205600000000	0.00000000000000	0.00000000000000	0.00000000000000	0.00000000000000	0.00000000000000	0.00000000000000	0.00000000000000	10.91426200000000	0.00000000000000	0.00000000000000	0.00000000000000	0.00000000000000	
16.39494200000000	-5.46544100000000	732.47873600000003	34.22762300000000	0.14384200000000	0.00000000000000	0.10209300000000	0.00000000000000	0.00000000000000	0.00000000000000	0.00000000000000	0.00000000000000	0.00000000000000	0.00000000000000	11.06993000000000	0.00000000000000	0.00000000000000	0.00000000000000	0.00000000000000	
16.39660900000000	-6.20601300000000	734.20335599999999	34.32842900000000	0.14282700000000	0.00000000000000	0.10212800000000	0.00000000000000	0.00000000000000	0.00000000000000	0.00000000000000	0.00000000000000	0.00000000000000	0.00000000000000	11.22601300000000	0.00000000000000	0.00000000000000	0.00000000000000	0.00000000000000	
16.39828500000000	-6.94849400000000	735.96774000000005	34.43241300000000	0.14181700000000	0.00000000000000	0.10216300000000	0.00000000000000	0.00000000000000	0.00000000000000	0.00000000000000	0.00000000000000	0.00000000000000	0.00000000000000	11.38227100000000	0.00000000000000	0.00000000000000	0.00000000000000	0.00000000000000	
